<svg width="106" height="70" viewBox="0 0 106 70" fill="none" xmlns="http://www.w3.org/2000/svg">
<path d="M21.2618 70C13.3064 70 8.38589 69.2884 5.01874 66.715C-0.41359 62.5723 -0.225043 54.7569 0.179015 37.6331C0.349617 30.4278 0.556127 21.456 0.394504 10.4828C0.394504 5.05018 5.98848 0.653263 12.8754 0.653263H12.9922C38.4298 1.58094 56.6124 0.894729 69.8924 0.392769C86.9167 -0.248977 95.4648 -0.573035 100.52 3.2838C105.952 7.42656 105.764 15.2419 105.36 32.3657C105.189 39.5711 104.983 48.5428 105.144 59.516C105.144 64.9486 99.5503 69.3455 92.6633 69.3455H92.5466C67.1089 68.4242 48.9263 69.1105 35.6463 69.6061C29.9715 69.8221 25.2396 70 21.2618 70ZM12.8215 4.50376C8.66419 4.52282 5.28805 7.19145 5.28805 10.4637C5.44967 21.4751 5.24316 30.4786 5.07256 37.7094C4.7134 53.2002 4.52483 60.9774 8.43072 63.9574C11.9595 66.6515 20.2921 66.3401 35.4128 65.7683C48.7737 65.2663 67.082 64.5738 92.7173 65.5014C96.8746 65.476 100.251 62.8137 100.251 59.5414C100.089 48.5301 100.295 39.5266 100.466 32.2958C100.825 16.805 101.014 9.02775 97.1079 6.04776C93.5792 3.35369 85.2467 3.67139 70.1259 4.23689C56.7651 4.73885 38.4567 5.43143 12.8215 4.50376Z" fill="white"/>
<path d="M52.9221 51.6626C42.5154 51.6626 31.8663 46.5604 31.6328 36.8135C31.8663 27.0094 42.5244 21.9072 52.9221 21.9072C63.3289 21.9072 73.978 27.0094 74.2114 36.7563V36.8135C73.978 46.5604 63.3199 51.6626 52.9131 51.6626H52.9221ZM52.9221 25.3701C45.1552 25.3701 36.7149 28.9537 36.5264 36.8135C36.7149 44.6161 45.1552 48.1998 52.9221 48.1998C60.68 48.1998 69.1114 44.6289 69.3179 36.7881C69.1114 28.9474 60.68 25.3765 52.9221 25.3765V25.3701Z" fill="white"/>
<path d="M84.2769 23.6863C79.3294 23.6863 74.3101 21.2909 74.2832 16.7224C74.3101 12.1349 79.3384 9.74585 84.2769 9.74585C89.2244 9.74585 94.2437 12.1413 94.2706 16.7097V16.7224C94.2437 21.2973 89.2154 23.6863 84.2769 23.6863ZM84.2769 13.2087C82.3913 13.2087 79.1947 13.9521 79.1767 16.7224C79.1947 19.48 82.3913 20.2235 84.2769 20.2235C86.1625 20.2235 89.359 19.4864 89.3769 16.7161C89.359 14.13 86.6204 13.2087 84.2769 13.2087Z" fill="white"/>
</svg>
