<svg width="96" height="99" viewBox="0 0 96 99" fill="none" xmlns="http://www.w3.org/2000/svg">
<path d="M89.8506 25.446C81.6688 10.3703 66.2027 0.58531 49.3572 0.0247646C32.2755 -0.535781 14.6931 8.43296 5.71768 25.5739C-2.4736 41.2003 -1.81225 60.3965 7.37105 75.669C6.15228 82.6315 4.92406 89.5941 3.70528 96.5567C10.8573 95.3471 18.0093 94.1276 25.1613 92.918C27.7311 94.3735 44.879 103.686 64.9084 95.9863C67.4121 95.0225 86.7613 87.1847 93.7243 65.0383C100.054 44.8881 91.3245 28.1307 89.8601 25.4362L89.8506 25.446ZM86.6951 62.0683C81.0736 80.7925 64.8706 87.6371 62.7448 88.4927C44.0286 96.006 27.8539 85.7293 26.125 84.5885C21.7601 85.5621 17.3952 86.5357 13.0398 87.4994L15.0993 73.6628C6.19 60.7899 5.028 43.7572 12.1044 29.832C19.5399 15.1988 34.2785 7.51838 48.6109 7.7839C62.811 8.05925 75.9623 16.1233 83.0104 28.7405C84.2669 30.9925 91.8158 45.0061 86.6951 62.0683Z" fill="white"/>
<path d="M35.9605 26.459C36.4896 26.459 36.962 26.813 37.1226 27.3342C38.0107 30.1075 41.5158 38.614 41.2419 39.5286C40.9112 40.63 36.8769 43.8457 36.7163 45.4094C36.5557 46.973 39.5602 51.3295 42.6969 54.7518C46.9673 59.4034 53.7319 62.4618 54.2799 62.7076C54.8279 62.9535 59.0321 56.5121 59.9013 56.1089C60.7705 55.7057 71.9284 61.9701 71.9284 63.042C71.9284 64.1139 71.0592 67.7919 68.9996 70.7028C67.5635 72.7384 64.408 73.6235 62.0649 73.948C62.0082 73.948 61.9515 73.948 61.9043 73.948C60.1281 73.6432 47.8837 72.2074 37.3494 61.3997C28.7802 52.608 26.2103 42.5968 25.3978 38.614C25.3884 38.555 25.3789 38.5058 25.3789 38.4468C25.3317 37.1094 25.3789 33.1462 28.0904 29.6846C29.1391 28.3373 30.972 27.0785 31.6334 26.636C31.794 26.5278 31.983 26.4688 32.172 26.4688H35.9511L35.9605 26.459Z" fill="white"/>
</svg>
