<svg xmlns="http://www.w3.org/2000/svg" xmlns:xlink="http://www.w3.org/1999/xlink" width="1024" zoomAndPan="magnify" viewBox="0 0 768 767.999994" height="1024" preserveAspectRatio="xMidYMid meet" version="1.0"><defs><g/><clipPath id="0c3853b72f"><rect x="0" width="557" y="0" height="333"/></clipPath><clipPath id="d3ddebb898"><rect x="0" width="579" y="0" height="116"/></clipPath></defs><rect x="-76.8" width="921.6" fill="#ffffff" y="-76.799999" height="921.599993" fill-opacity="1"/><rect x="-76.8" width="921.6" fill="#ffffff" y="-76.799999" height="921.599993" fill-opacity="1"/><g transform="matrix(1, 0, 0, 1, 107, 168)"><g clip-path="url(#0c3853b72f)"><g fill="#000000" fill-opacity="1"><g transform="translate(0.170808, 241.968501)"><g><path d="M 165.390625 -177.828125 L 165.390625 -37.34375 L 35.5625 -177.828125 L 12.703125 -177.828125 L 12.703125 0 L 25.40625 0 L 25.40625 -151.40625 L 165.390625 0 L 178.09375 0 L 178.09375 -177.828125 Z M 165.390625 -177.828125 "/></g></g></g><g fill="#000000" fill-opacity="1"><g transform="translate(190.963722, 241.968501)"><g><path d="M 131.84375 -69.859375 L 131.84375 -57.15625 L 159.796875 -57.15625 L 159.796875 -29.984375 C 153.867188 -24.554688 146.835938 -20.320312 138.703125 -17.28125 C 130.578125 -14.226562 121.007812 -12.703125 110 -12.703125 C 96.957031 -12.703125 85.863281 -14.90625 76.71875 -19.3125 C 67.40625 -23.539062 59.867188 -29.210938 54.109375 -36.328125 C 48.179688 -43.441406 43.863281 -51.570312 41.15625 -60.71875 C 38.445312 -69.863281 37.09375 -79.265625 37.09375 -88.921875 C 37.09375 -98.566406 38.445312 -107.960938 41.15625 -117.109375 C 43.863281 -126.253906 48.179688 -134.382812 54.109375 -141.5 C 59.867188 -148.613281 67.40625 -154.375 76.71875 -158.78125 C 85.863281 -163.007812 96.957031 -165.125 110 -165.125 C 124.0625 -165.125 135.832031 -162.671875 145.3125 -157.765625 C 154.800781 -152.847656 162.421875 -146.328125 168.171875 -138.203125 L 179.859375 -144.8125 C 172.410156 -154.96875 162.84375 -163.007812 151.15625 -168.9375 C 139.300781 -174.863281 125.5 -177.828125 109.75 -177.828125 C 95.6875 -177.828125 82.726562 -175.710938 70.875 -171.484375 C 58.851562 -167.078125 48.523438 -160.976562 39.890625 -153.1875 C 31.242188 -145.394531 24.550781 -136.082031 19.8125 -125.25 C 14.90625 -114.238281 12.453125 -102.128906 12.453125 -88.921875 C 12.453125 -75.703125 14.90625 -63.675781 19.8125 -52.84375 C 24.550781 -41.832031 31.242188 -32.429688 39.890625 -24.640625 C 48.523438 -16.847656 58.851562 -10.835938 70.875 -6.609375 C 82.726562 -2.203125 95.6875 0 109.75 0 C 125.5 0 139.8125 -2.625 152.6875 -7.875 C 165.382812 -13.125 176.140625 -20.578125 184.953125 -30.234375 L 184.953125 -69.859375 Z M 131.84375 -69.859375 "/></g></g></g><g fill="#000000" fill-opacity="1"><g transform="translate(388.870138, 241.968501)"><g><path d="M 127.53125 -50.296875 C 127.53125 -44.878906 126.34375 -39.882812 123.96875 -35.3125 C 121.4375 -30.738281 118.132812 -26.84375 114.0625 -23.625 C 109.832031 -20.238281 105.09375 -17.613281 99.84375 -15.75 C 94.414062 -13.882812 88.828125 -12.953125 83.078125 -12.953125 L 38.875 -12.953125 L 38.875 -94.765625 L 83.078125 -94.765625 C 88.828125 -94.765625 94.414062 -93.914062 99.84375 -92.21875 C 105.09375 -90.351562 109.832031 -87.8125 114.0625 -84.59375 C 118.132812 -81.207031 121.4375 -77.144531 123.96875 -72.40625 C 126.34375 -67.664062 127.53125 -62.328125 127.53125 -56.390625 Z M 75.453125 -165.125 C 80.359375 -165.125 84.929688 -164.703125 89.171875 -163.859375 C 93.398438 -162.847656 97.125 -161.320312 100.34375 -159.28125 C 103.394531 -157.082031 105.851562 -154.289062 107.71875 -150.90625 C 109.40625 -147.519531 110.25 -143.285156 110.25 -138.203125 L 110.25 -133.875 C 110.25 -126.769531 107.539062 -120.757812 102.125 -115.84375 C 96.707031 -110.757812 89.765625 -107.710938 81.296875 -106.703125 L 38.609375 -106.703125 L 38.609375 -165.125 Z M 130.828125 -93.234375 C 128.117188 -95.097656 124.988281 -96.789062 121.4375 -98.3125 C 117.707031 -99.84375 114.148438 -101.195312 110.765625 -102.375 C 118.390625 -105.9375 124.398438 -110.507812 128.796875 -116.09375 C 133.203125 -121.519531 135.40625 -127.535156 135.40625 -134.140625 L 135.40625 -138.453125 C 135.40625 -145.734375 133.878906 -151.914062 130.828125 -157 C 127.609375 -161.914062 123.289062 -165.976562 117.875 -169.1875 C 112.457031 -172.238281 106.109375 -174.441406 98.828125 -175.796875 C 91.546875 -177.148438 83.671875 -177.828125 75.203125 -177.828125 L 12.953125 -177.828125 L 12.953125 0 L 82.5625 0 C 91.375 0 100.097656 -1.1875 108.734375 -3.5625 C 117.367188 -5.757812 124.90625 -9.0625 131.34375 -13.46875 C 138.113281 -18.207031 143.363281 -23.796875 147.09375 -30.234375 C 150.820312 -36.492188 152.6875 -43.179688 152.6875 -50.296875 L 152.6875 -56.390625 C 152.6875 -63.503906 150.820312 -70.28125 147.09375 -76.71875 C 143.363281 -82.988281 138.113281 -88.492188 131.34375 -93.234375 Z M 130.828125 -93.234375 "/></g></g></g></g></g><g transform="matrix(1, 0, 0, 1, 103, 409)"><g clip-path="url(#d3ddebb898)"><g fill="#000000" fill-opacity="1"><g transform="translate(1.340528, 85.316246)"><g><path d="M 61.375 -46.53125 C 64.9375 -46.53125 68.101562 -45.789062 70.875 -44.3125 C 73.65625 -42.84375 75.851562 -40.632812 77.46875 -37.6875 C 79.082031 -34.738281 79.890625 -31.15625 79.890625 -26.9375 L 79.890625 0 L 72.390625 0 L 72.390625 -25.84375 C 72.390625 -30.40625 71.257812 -33.894531 69 -36.3125 C 66.75 -38.726562 63.707031 -39.9375 59.875 -39.9375 C 55.925781 -39.9375 52.785156 -38.671875 50.453125 -36.140625 C 48.117188 -33.617188 46.953125 -29.96875 46.953125 -25.1875 L 46.953125 0 L 39.4375 0 L 39.4375 -25.84375 C 39.4375 -30.40625 38.3125 -33.894531 36.0625 -36.3125 C 33.8125 -38.726562 30.769531 -39.9375 26.9375 -39.9375 C 22.988281 -39.9375 19.847656 -38.671875 17.515625 -36.140625 C 15.179688 -33.617188 14.015625 -29.96875 14.015625 -25.1875 L 14.015625 0 L 6.421875 0 L 6.421875 -45.703125 L 14.015625 -45.703125 L 14.015625 -39.109375 C 15.515625 -41.503906 17.523438 -43.335938 20.046875 -44.609375 C 22.578125 -45.890625 25.375 -46.53125 28.4375 -46.53125 C 32.269531 -46.53125 35.660156 -45.664062 38.609375 -43.9375 C 41.554688 -42.21875 43.753906 -39.691406 45.203125 -36.359375 C 46.472656 -39.578125 48.582031 -42.078125 51.53125 -43.859375 C 54.476562 -45.640625 57.757812 -46.53125 61.375 -46.53125 Z M 61.375 -46.53125 "/></g></g></g><g fill="#000000" fill-opacity="1"><g transform="translate(103.553755, 85.316246)"><g><path d="M 3.578125 -23.015625 C 3.578125 -27.679688 4.519531 -31.78125 6.40625 -35.3125 C 8.300781 -38.84375 10.90625 -41.582031 14.21875 -43.53125 C 17.53125 -45.476562 21.210938 -46.453125 25.265625 -46.453125 C 29.265625 -46.453125 32.738281 -45.585938 35.6875 -43.859375 C 38.632812 -42.140625 40.832031 -39.972656 42.28125 -37.359375 L 42.28125 -45.703125 L 49.953125 -45.703125 L 49.953125 0 L 42.28125 0 L 42.28125 -8.5 C 40.78125 -5.832031 38.539062 -3.625 35.5625 -1.875 C 32.59375 -0.125 29.132812 0.75 25.1875 0.75 C 21.125 0.75 17.453125 -0.25 14.171875 -2.25 C 10.890625 -4.25 8.300781 -7.054688 6.40625 -10.671875 C 4.519531 -14.285156 3.578125 -18.398438 3.578125 -23.015625 Z M 42.28125 -22.9375 C 42.28125 -26.382812 41.582031 -29.382812 40.1875 -31.9375 C 38.800781 -34.5 36.925781 -36.457031 34.5625 -37.8125 C 32.195312 -39.175781 29.597656 -39.859375 26.765625 -39.859375 C 23.929688 -39.859375 21.347656 -39.191406 19.015625 -37.859375 C 16.679688 -36.523438 14.816406 -34.578125 13.421875 -32.015625 C 12.035156 -29.460938 11.34375 -26.460938 11.34375 -23.015625 C 11.34375 -19.515625 12.035156 -16.46875 13.421875 -13.875 C 14.816406 -11.289062 16.679688 -9.316406 19.015625 -7.953125 C 21.347656 -6.597656 23.929688 -5.921875 26.765625 -5.921875 C 29.597656 -5.921875 32.195312 -6.597656 34.5625 -7.953125 C 36.925781 -9.316406 38.800781 -11.289062 40.1875 -13.875 C 41.582031 -16.46875 42.28125 -19.488281 42.28125 -22.9375 Z M 42.28125 -22.9375 "/></g></g></g><g fill="#000000" fill-opacity="1"><g transform="translate(176.255257, 85.316246)"><g><path d="M 14.015625 -38.28125 C 15.347656 -40.894531 17.25 -42.921875 19.71875 -44.359375 C 22.195312 -45.804688 25.210938 -46.53125 28.765625 -46.53125 L 28.765625 -38.6875 L 26.765625 -38.6875 C 18.265625 -38.6875 14.015625 -34.070312 14.015625 -24.84375 L 14.015625 0 L 6.421875 0 L 6.421875 -45.703125 L 14.015625 -45.703125 Z M 14.015625 -38.28125 "/></g></g></g><g fill="#000000" fill-opacity="1"><g transform="translate(223.696679, 85.316246)"><g><path d="M 31.9375 0 L 14.015625 -20.1875 L 14.015625 0 L 6.421875 0 L 6.421875 -61.703125 L 14.015625 -61.703125 L 14.015625 -25.4375 L 31.609375 -45.703125 L 42.203125 -45.703125 L 20.6875 -22.9375 L 42.28125 0 Z M 31.9375 0 "/></g></g></g><g fill="#000000" fill-opacity="1"><g transform="translate(282.976168, 85.316246)"><g><path d="M 48.109375 -24.59375 C 48.109375 -23.15625 48.023438 -21.628906 47.859375 -20.015625 L 11.34375 -20.015625 C 11.625 -15.515625 13.164062 -12 15.96875 -9.46875 C 18.78125 -6.9375 22.1875 -5.671875 26.1875 -5.671875 C 29.46875 -5.671875 32.203125 -6.429688 34.390625 -7.953125 C 36.585938 -9.484375 38.132812 -11.53125 39.03125 -14.09375 L 47.203125 -14.09375 C 45.972656 -9.695312 43.523438 -6.125 39.859375 -3.375 C 36.191406 -0.625 31.632812 0.75 26.1875 0.75 C 21.851562 0.75 17.972656 -0.222656 14.546875 -2.171875 C 11.128906 -4.117188 8.445312 -6.882812 6.5 -10.46875 C 4.550781 -14.050781 3.578125 -18.207031 3.578125 -22.9375 C 3.578125 -27.65625 4.519531 -31.789062 6.40625 -35.34375 C 8.300781 -38.90625 10.957031 -41.644531 14.375 -43.5625 C 17.800781 -45.488281 21.738281 -46.453125 26.1875 -46.453125 C 30.519531 -46.453125 34.351562 -45.503906 37.6875 -43.609375 C 41.03125 -41.722656 43.601562 -39.125 45.40625 -35.8125 C 47.207031 -32.507812 48.109375 -28.769531 48.109375 -24.59375 Z M 40.28125 -26.1875 C 40.28125 -29.070312 39.640625 -31.554688 38.359375 -33.640625 C 37.078125 -35.734375 35.335938 -37.320312 33.140625 -38.40625 C 30.953125 -39.488281 28.519531 -40.03125 25.84375 -40.03125 C 22.007812 -40.03125 18.742188 -38.804688 16.046875 -36.359375 C 13.359375 -33.910156 11.816406 -30.519531 11.421875 -26.1875 Z M 40.28125 -26.1875 "/></g></g></g><g fill="#000000" fill-opacity="1"><g transform="translate(351.009145, 85.316246)"><g><path d="M 15.671875 -39.4375 L 15.671875 -12.515625 C 15.671875 -10.285156 16.144531 -8.710938 17.09375 -7.796875 C 18.039062 -6.878906 19.679688 -6.421875 22.015625 -6.421875 L 27.609375 -6.421875 L 27.609375 0 L 20.765625 0 C 16.535156 0 13.363281 -0.972656 11.25 -2.921875 C 9.144531 -4.867188 8.09375 -8.066406 8.09375 -12.515625 L 8.09375 -39.4375 L 2.171875 -39.4375 L 2.171875 -45.703125 L 8.09375 -45.703125 L 8.09375 -57.203125 L 15.671875 -57.203125 L 15.671875 -45.703125 L 27.609375 -45.703125 L 27.609375 -39.4375 Z M 15.671875 -39.4375 "/></g></g></g><g fill="#000000" fill-opacity="1"><g transform="translate(397.700295, 85.316246)"><g><path d="M 10.34375 -53.125 C 8.894531 -53.125 7.671875 -53.625 6.671875 -54.625 C 5.671875 -55.625 5.171875 -56.847656 5.171875 -58.296875 C 5.171875 -59.734375 5.671875 -60.953125 6.671875 -61.953125 C 7.671875 -62.953125 8.894531 -63.453125 10.34375 -63.453125 C 11.726562 -63.453125 12.90625 -62.953125 13.875 -61.953125 C 14.851562 -60.953125 15.34375 -59.734375 15.34375 -58.296875 C 15.34375 -56.847656 14.851562 -55.625 13.875 -54.625 C 12.90625 -53.625 11.726562 -53.125 10.34375 -53.125 Z M 14.015625 -45.703125 L 14.015625 0 L 6.421875 0 L 6.421875 -45.703125 Z M 14.015625 -45.703125 "/></g></g></g><g fill="#000000" fill-opacity="1"><g transform="translate(434.554175, 85.316246)"><g><path d="M 28.6875 -46.53125 C 34.25 -46.53125 38.75 -44.847656 42.1875 -41.484375 C 45.632812 -38.117188 47.359375 -33.269531 47.359375 -26.9375 L 47.359375 0 L 39.859375 0 L 39.859375 -25.84375 C 39.859375 -30.40625 38.71875 -33.894531 36.4375 -36.3125 C 34.15625 -38.726562 31.046875 -39.9375 27.109375 -39.9375 C 23.097656 -39.9375 19.910156 -38.6875 17.546875 -36.1875 C 15.191406 -33.6875 14.015625 -30.046875 14.015625 -25.265625 L 14.015625 0 L 6.421875 0 L 6.421875 -45.703125 L 14.015625 -45.703125 L 14.015625 -39.1875 C 15.515625 -41.53125 17.554688 -43.335938 20.140625 -44.609375 C 22.722656 -45.890625 25.570312 -46.53125 28.6875 -46.53125 Z M 28.6875 -46.53125 "/></g></g></g><g fill="#000000" fill-opacity="1"><g transform="translate(504.254497, 85.316246)"><g><path d="M 25.265625 -46.453125 C 29.210938 -46.453125 32.671875 -45.585938 35.640625 -43.859375 C 38.617188 -42.140625 40.832031 -39.972656 42.28125 -37.359375 L 42.28125 -45.703125 L 49.953125 -45.703125 L 49.953125 1 C 49.953125 5.164062 49.0625 8.875 47.28125 12.125 C 45.5 15.382812 42.953125 17.929688 39.640625 19.765625 C 36.335938 21.597656 32.492188 22.515625 28.109375 22.515625 C 22.097656 22.515625 17.09375 21.097656 13.09375 18.265625 C 9.09375 15.429688 6.726562 11.566406 6 6.671875 L 13.515625 6.671875 C 14.347656 9.453125 16.066406 11.6875 18.671875 13.375 C 21.285156 15.070312 24.429688 15.921875 28.109375 15.921875 C 32.273438 15.921875 35.675781 14.613281 38.3125 12 C 40.957031 9.394531 42.28125 5.726562 42.28125 1 L 42.28125 -8.59375 C 40.78125 -5.925781 38.554688 -3.703125 35.609375 -1.921875 C 32.660156 -0.140625 29.210938 0.75 25.265625 0.75 C 21.210938 0.75 17.53125 -0.25 14.21875 -2.25 C 10.90625 -4.25 8.300781 -7.054688 6.40625 -10.671875 C 4.519531 -14.285156 3.578125 -18.398438 3.578125 -23.015625 C 3.578125 -27.679688 4.519531 -31.78125 6.40625 -35.3125 C 8.300781 -38.84375 10.90625 -41.582031 14.21875 -43.53125 C 17.53125 -45.476562 21.210938 -46.453125 25.265625 -46.453125 Z M 42.28125 -22.9375 C 42.28125 -26.382812 41.582031 -29.382812 40.1875 -31.9375 C 38.800781 -34.5 36.925781 -36.457031 34.5625 -37.8125 C 32.195312 -39.175781 29.597656 -39.859375 26.765625 -39.859375 C 23.929688 -39.859375 21.347656 -39.191406 19.015625 -37.859375 C 16.679688 -36.523438 14.816406 -34.578125 13.421875 -32.015625 C 12.035156 -29.460938 11.34375 -26.460938 11.34375 -23.015625 C 11.34375 -19.515625 12.035156 -16.46875 13.421875 -13.875 C 14.816406 -11.289062 16.679688 -9.316406 19.015625 -7.953125 C 21.347656 -6.597656 23.929688 -5.921875 26.765625 -5.921875 C 29.597656 -5.921875 32.195312 -6.597656 34.5625 -7.953125 C 36.925781 -9.316406 38.800781 -11.289062 40.1875 -13.875 C 41.582031 -16.46875 42.28125 -19.488281 42.28125 -22.9375 Z M 42.28125 -22.9375 "/></g></g></g></g></g></svg>